<?xml version="1.0" encoding="UTF-8" standalone="no"?>
<!-- Created with Inkscape (http://www.inkscape.org/) -->

<svg
   xmlns:dc="http://purl.org/dc/elements/1.1/"
   xmlns:cc="http://creativecommons.org/ns#"
   xmlns:rdf="http://www.w3.org/1999/02/22-rdf-syntax-ns#"
   xmlns:svg="http://www.w3.org/2000/svg"
   xmlns="http://www.w3.org/2000/svg"
   xmlns:sodipodi="http://sodipodi.sourceforge.net/DTD/sodipodi-0.dtd"
   xmlns:inkscape="http://www.inkscape.org/namespaces/inkscape"
   width="744.09448819"
   height="1052.3622047"
   id="svg2"
   version="1.1"
   inkscape:version="0.48.4 r9939"
   sodipodi:docname="1handedbearcat.svg">
  <defs
     id="defs4" />
  <sodipodi:namedview
     id="base"
     pagecolor="#ffffff"
     bordercolor="#666666"
     borderopacity="1.0"
     inkscape:pageopacity="0.0"
     inkscape:pageshadow="2"
     inkscape:zoom="2.8"
     inkscape:cx="24.637476"
     inkscape:cy="677.46119"
     inkscape:document-units="px"
     inkscape:current-layer="layer1"
     showgrid="false"
     inkscape:window-width="1855"
     inkscape:window-height="1056"
     inkscape:window-x="65"
     inkscape:window-y="24"
     inkscape:window-maximized="1" />
  <metadata
     id="metadata7">
    <rdf:RDF>
      <cc:Work
         rdf:about="">
        <dc:format>image/svg+xml</dc:format>
        <dc:type
           rdf:resource="http://purl.org/dc/dcmitype/StillImage" />
      </cc:Work>
    </rdf:RDF>
  </metadata>
  <g
     inkscape:label="Layer 1"
     inkscape:groupmode="layer"
     id="layer1">
    <path
       style="fill:none;stroke:#000000;stroke-width:1px;stroke-linecap:butt;stroke-linejoin:miter;stroke-opacity:1"
       d="m 292.94424,306.8696 c -19.90821,-2.55315 -42.1256,2.0207 -59.66578,-10.11924 -10.52087,-6.60631 -14.2507,-20.19042 -12.27,-31.92447 -0.0926,-21.87205 3.20031,-46.1967 19.85165,-62.03423 22.89577,-22.90863 49.17473,-24.44155 82.32313,-27.24984 10.53006,-0.75089 23.55986,0.0459 29.67091,10.0904 6.58068,10.19079 11.06983,4.01449 17.75588,14.18979 10.45108,18.65668 24.5433,36.43736 27.16514,58.32853 2.53793,9.66892 6.74173,21.31487 -0.1623,30.1863 -11.00781,10.37626 -27.39266,8.68929 -40.50737,14.65059 -11.89049,3.8566 -23.53,8.68888 -35.87703,10.95335"
       id="path2985"
       inkscape:connector-curvature="0"
       sodipodi:nodetypes="ccccccccccc" />
    <path
       style="fill:none;stroke:#000000;stroke-width:1px;stroke-linecap:butt;stroke-linejoin:miter;stroke-opacity:1"
       d="m 372.76732,203.26162 c -2.74287,-17.66056 6.7753,-36.94479 -2.29161,-54.7348 -17.02403,4.66643 -18.94018,5.43491 -34.1276,22.86831 0.0448,3.53014 -6.41545,4.93285 -7.03866,1.02254"
       id="path2987"
       inkscape:connector-curvature="0"
       sodipodi:nodetypes="cccc" />
    <path
       style="fill:none;stroke:#000000;stroke-width:1px;stroke-linecap:butt;stroke-linejoin:miter;stroke-opacity:1"
       d="m 273.28688,183.06722 c -7.22221,-6.8344 -4.17853,-10.68515 -10.19539,-18.56996 -4.5615,-4.44753 -16.695,-17.53623 -20.82717,-15.44051 -4.40193,6.53179 -8.21892,21.27182 -6.26533,26.25657 6.86578,8.20608 -2.39239,23.57772 3.99358,27.04498"
       id="path2989"
       inkscape:connector-curvature="0"
       sodipodi:nodetypes="ccccc" />
    <path
       style="fill:none;stroke:#000000;stroke-width:1px;stroke-linecap:butt;stroke-linejoin:miter;stroke-opacity:1"
       d="m 240.41631,302.82899 c -6.9922,7.37794 -12.08473,18.33599 -8.4894,28.48412 0.95292,20.07757 0.29838,40.21585 0.1821,60.28948 0.20306,7.22579 -4.44964,18.35493 -3.41889,22.76379 14.70885,-4.08401 29.97609,-0.14505 44.87814,0.51312 20.61623,1.30779 41.34918,1.28141 61.80299,4.5231 14.86051,2.84322 30.42614,-1.72523 45.38708,0.53062 9.54809,1.51914 14.26504,-3.81919 10.40246,-11.93443 -3.86258,-8.11524 6.57529,-74.39182 -12.772,-109.09838"
       id="path2993"
       inkscape:connector-curvature="0"
       sodipodi:nodetypes="ccccccczc" />
    <path
       style="fill:none;stroke:#000000;stroke-width:1px;stroke-linecap:butt;stroke-linejoin:miter;stroke-opacity:1"
       d="m 305.29015,354.93851 c -10.32497,-4.87273 -31.42583,3.13177 -38.01994,10.10274 -1.57031,3.40107 -0.5123,7.59166 1.99845,10.25279 3.34956,11.15465 5.26782,26.5016 -0.33091,35.99094 -0.1846,0.52718 -0.28815,1.091 -0.23717,1.65064"
       id="path2995"
       inkscape:connector-curvature="0"
       sodipodi:nodetypes="ccccc" />
    <path
       style="fill:none;stroke:#000000;stroke-width:1px;stroke-linecap:butt;stroke-linejoin:miter;stroke-opacity:1"
       d="m 304.05592,416.97623 c -0.68652,-9.14104 -0.67443,-18.22824 0.99621,-27.32798 2.64078,-14.38395 -5.37239,-25.37025 -5.64705,-35.38259 12.1457,-9.17526 36.7895,-11.16609 49.88459,-13.15937 4.33513,-0.17871 6.36576,4.99616 5.29272,8.62064 -0.39455,6.59347 -1.07726,13.18404 -2.7465,19.58961 -1.08785,4.78289 -0.72606,9.70403 -1.19732,14.54091 -1.56722,11.40761 -6.66363,22.3999 -5.16717,34.12889"
       id="path2997"
       inkscape:connector-curvature="0"
       sodipodi:nodetypes="cscccccc" />
    <path
       style="fill:none;stroke:#000000;stroke-width:1px;stroke-linecap:butt;stroke-linejoin:miter;stroke-opacity:1"
       d="m 334.36049,216.96603 c -3.92242,3.4936 -2.67343,14.27247 2.41603,15.57171 5.00531,1.27776 11.06933,-7.40401 9.42587,-12.30144 -1.30281,-3.88229 -8.78393,-5.99393 -11.8419,-3.27027 z"
       id="path2999"
       inkscape:connector-curvature="0"
       sodipodi:nodetypes="aaaa" />
    <path
       style="fill:none;stroke:#000000;stroke-width:1px;stroke-linecap:butt;stroke-linejoin:miter;stroke-opacity:1"
       d="m 265.79699,229.90986 c -1.66969,6.12359 0.26848,8.83035 7.1109,9.40571 6.84242,0.57536 18.44654,-7.03322 16.27267,-14.15921 -2.17387,-7.12599 -8.33622,-6.93659 -15.89436,-6.32882 -7.55814,0.60777 -5.81952,4.95873 -7.48921,11.08232 z"
       id="path3001"
       inkscape:connector-curvature="0"
       sodipodi:nodetypes="zzzzz" />
    <path
       style="fill:none;stroke:#000000;stroke-width:1px;stroke-linecap:butt;stroke-linejoin:miter;stroke-opacity:1"
       d="m 311.12698,250.30106 c -1.24744,-0.24492 -2.55403,0.0494 -3.77923,-0.34398 -0.29351,-0.76569 0.76013,-1.56226 1.4186,-1.07705 0.95401,-0.0152 0.31461,1.7229 -0.40968,1.12039 -0.88119,-0.63384 -2.20128,-0.99322 -3.14886,-0.30333 -0.61459,0.59348 -0.47423,1.58062 -0.0849,2.25833 0.32951,1.20002 -0.12448,2.48226 -0.87418,3.42952 -0.55022,1.11379 -0.58028,2.49898 0.0191,3.59994 1.23082,0.85763 2.78479,0.44688 4.16969,0.40432 2.26996,-0.0533 4.53668,0.11018 6.80406,0.1878 0.78564,-0.17117 1.29811,-1.09095 1.04156,-1.85056 0.22281,-1.62144 -0.49407,-3.35716 -1.84879,-4.29271 -1.10471,-1.04148 -2.29594,-1.99561 -3.30736,-3.13267 z"
       id="path3003"
       inkscape:connector-curvature="0" />
    <path
       style="fill:none;stroke:#000000;stroke-width:1px;stroke-linecap:butt;stroke-linejoin:miter;stroke-opacity:1"
       d="m 259.25025,246.31121 c 0.7725,0 5.23461,2.34456 9.40635,2.91284 4.17175,0.56829 5.14325,-1.63843 10.52129,-1.67334 6.91929,-0.0449 10.84456,1.85706 15.07777,2.40842 4.23321,0.55136 10.03752,2.33481 10.93296,2.30096 -1.68359,0.67343 -5.47339,2.51833 -7.19362,3.09173 -1.88809,0.62937 -19.54116,0 -22.22336,0 -2.49991,0 -5.62301,-0.49164 -8.08122,0 -2.80649,-1.96496 -2.57972,1.65509 -4.04061,2.02031 -0.97999,0.245 -2.05046,-0.245 -3.03045,0 -1.58548,0.39637 -0.39104,1.01015 -3.03046,1.01015"
       id="path3005"
       inkscape:connector-curvature="0"
       sodipodi:nodetypes="cssscsscssc" />
    <path
       style="fill:none;stroke:#000000;stroke-width:1px;stroke-linecap:butt;stroke-linejoin:miter;stroke-opacity:1"
       d="m 304.05592,259.39243 c -8.08122,0 -13.51079,4.54569 -21.59201,4.54569 -0.79096,0 -4.54673,-0.50404 -5.05077,0 -0.23809,0.2381 0.2381,0.77206 0,1.01016 -0.23809,0.23809 -0.77205,-0.2381 -1.01015,0 -0.47619,0.47619 0.47619,1.54411 0,2.0203 -0.47619,0.47619 -1.54411,-0.47619 -2.02031,0 -0.23809,0.2381 0.2381,0.77206 0,1.01015 -1.2109,1.21091 -4.04061,-1.64895 -4.04061,1.01016"
       id="path3007"
       inkscape:connector-curvature="0"
       sodipodi:nodetypes="cscsssccc" />
    <path
       style="fill:none;stroke:#000000;stroke-width:1px;stroke-linecap:butt;stroke-linejoin:miter;stroke-opacity:1"
       d="m 354.56354,265.45335 c -0.95765,0 -3.20169,0.41946 -4.04061,0 -0.42591,-0.21296 -0.5584,-0.85957 -1.01015,-1.01015 -2.03741,-0.67914 -4.98298,0.41761 -7.07107,0 -0.7383,-0.14766 -1.28986,-0.82754 -2.0203,-1.01016 -2.85154,-0.71288 -6.18311,0.48472 -9.09138,0 -1.0503,-0.17505 -1.98634,-0.80132 -3.03045,-1.01015 -2.80598,-0.56119 -1.68359,0.8418 -5.05077,0 -0.46197,-0.11549 -0.58423,-0.79719 -1.01015,-1.01015 -0.30117,-0.15059 -0.70898,0.15058 -1.01015,0 -0.42592,-0.21296 -0.58424,-0.79719 -1.01015,-1.01015 -0.30117,-0.15059 -0.77206,0.23809 -1.01016,0 -0.23809,-0.2381 0.2381,-0.77206 0,-1.01016 -1.19047,-1.19047 -5.33962,4.76191 -5.05076,0 2.35702,-1.34687 4.59034,-2.93806 7.07107,-4.04061 1.4567,-0.64742 16.75598,0 20.20305,0 0.79096,0 4.54672,0.50405 5.05076,0 0.2381,-0.23809 0,-0.67343 0,-1.01015"
       id="path3009"
       inkscape:connector-curvature="0" />
    <path
       style="fill:none;stroke:#000000;stroke-width:1px;stroke-linecap:butt;stroke-linejoin:miter;stroke-opacity:1"
       d="m 309.10668,250.30106 c 7.04221,0.0587 14.08663,-0.1234 21.12709,0.10337 1.71663,0.49562 3.33431,-0.5148 4.88683,-1.09493 1.64586,0.0756 2.78183,-1.93944 4.51243,-1.23054 1.653,-0.27492 2.81427,-2.11062 4.62405,-1.70535 0.82993,0.0187 2.12767,-0.0421 2.22544,-1.12338"
       id="path3011"
       inkscape:connector-curvature="0" />
    <path
       style="fill:none;stroke:#000000;stroke-width:1px;stroke-linecap:butt;stroke-linejoin:miter;stroke-opacity:1"
       d="m 392.14286,410.57647 c 3.98824,0.72127 8.27876,-1.49859 10.06099,-5.12504 9.80122,-8.13452 23.29116,-10.63048 32.14628,-20.06541 4.05237,-5.1631 5.85422,-12.01621 11.15618,-16.19091 3.61481,1.04198 6.08832,-4.99813 2.75433,-6.76886 -9.91266,-4.33433 -21.94537,-0.93223 -29.34463,6.60983 -2.54586,1.93452 -5.78466,3.79424 -6.41961,7.2118 0.4982,3.62846 5.30676,4.99899 8.16385,3.19907 3.53978,-1.17457 7.82233,-2.57184 9.17234,-6.45679 0.66669,-3.81044 -5.90852,-5.66252 -7.20873,-1.95423 -0.0566,0.20146 -0.0977,0.40441 -0.1241,0.612"
       id="path3787"
       inkscape:connector-curvature="0" />
    <path
       style="fill:none;stroke:#000000;stroke-width:1px;stroke-linecap:butt;stroke-linejoin:miter;stroke-opacity:1"
       d="m 242.85714,812.36218 c -10.02982,9.51274 -3.25721,58.09 1.4455,24.30725 15.47309,-33.54161 35.70751,38.23386 40.11803,0.34959 -1.8407,-14.31434 -11.73226,-20.48406 7.90779,-14.94599 22.15265,3.16863 59.28613,-13.93677 66.62243,16.08006 -8.40253,21.44603 -3.10585,-16.38326 13.49018,-2.28354 11.6942,11.35215 44.23644,11.24692 21.32182,-8.06238 -19.24001,-20.19167 32.0685,-20.53053 26.94241,-46.54703 -2.03333,-16.18513 21.32098,-22.81709 5.78468,-5.53212 -24.7835,17.39564 -57.47686,28.07723 -88.17999,24.33247 -24.41824,-11.70157 -49.98725,-23.66001 -77.99187,-14.94501 -21.95127,-10.14549 2.8671,-35.87565 -32.83233,-27.54511 -24.71267,-6.92719 -56.46871,2.34822 -39.98313,34.34044 14.30705,25.09699 9.49229,1.71077 31.66359,12.3913 7.5765,3.46846 15.2465,7.36847 23.69089,8.06007 z"
       id="path3790"
       inkscape:connector-curvature="0"
       sodipodi:nodetypes="ccccccccccccccc" />
    <path
       sodipodi:type="arc"
       style="color:#000000;fill:none;stroke:#000000;stroke-width:1;stroke-linecap:round;stroke-linejoin:miter;stroke-miterlimit:4;stroke-opacity:1;stroke-dasharray:none;stroke-dashoffset:0;marker:none;visibility:visible;display:inline;overflow:visible;enable-background:accumulate"
       id="path3819"
       sodipodi:cx="138.57143"
       sodipodi:cy="372.36218"
       sodipodi:rx="48.57143"
       sodipodi:ry="45.714287"
       d="m 187.14286,372.36218 a 48.57143,45.714287 0 1 1 -97.142864,0 48.57143,45.714287 0 1 1 97.142864,0 z"
       transform="translate(10,-10)"
       inkscape:export-filename="/home/dirk/Documents/scratchpad/ball.png"
       inkscape:export-xdpi="150"
       inkscape:export-ydpi="150" />
    <path
       sodipodi:type="arc"
       style="color:#000000;fill:none;stroke:#000000;stroke-width:1;stroke-linecap:round;stroke-linejoin:miter;stroke-miterlimit:4;stroke-opacity:1;stroke-dasharray:none;stroke-dashoffset:0;marker:none;visibility:visible;display:inline;overflow:visible;enable-background:accumulate"
       id="path3821"
       sodipodi:cx="153.57143"
       sodipodi:cy="368.07648"
       sodipodi:rx="15"
       sodipodi:ry="15.714286"
       d="m 168.57143,368.07648 a 15,15.714286 0 1 1 -30,0 15,15.714286 0 1 1 30,0 z"
       transform="translate(-8,-8)"
       inkscape:export-filename="/home/dirk/Documents/scratchpad/ball.png"
       inkscape:export-xdpi="150"
       inkscape:export-ydpi="150" />
    <path
       style="fill:none;stroke:#000000;stroke-width:1px;stroke-linecap:butt;stroke-linejoin:miter;stroke-opacity:1"
       d="m 158.92857,367.36218 c 15.24913,-0.14866 21.94907,11.98338 23.92857,27"
       id="path3823"
       inkscape:connector-curvature="0"
       sodipodi:nodetypes="cc"
       inkscape:export-filename="/home/dirk/Documents/scratchpad/ball.png"
       inkscape:export-xdpi="150"
       inkscape:export-ydpi="150" />
    <path
       style="fill:none;stroke:#000000;stroke-width:1px;stroke-linecap:butt;stroke-linejoin:miter;stroke-opacity:1"
       d="m 152.85714,346.6479 c 13.33333,-4.91182 29.88095,-3.98031 43.21429,5.35714"
       id="path3825"
       inkscape:connector-curvature="0"
       sodipodi:nodetypes="cc"
       inkscape:export-filename="/home/dirk/Documents/scratchpad/ball.png"
       inkscape:export-xdpi="150"
       inkscape:export-ydpi="150" />
    <path
       style="fill:none;stroke:#000000;stroke-width:1px;stroke-linecap:butt;stroke-linejoin:miter;stroke-opacity:1"
       d="m 131.78571,352.71932 c -3.10629,-8.53074 -5.9048,-18.78926 9.64286,-35.71428"
       id="path3827"
       inkscape:connector-curvature="0"
       sodipodi:nodetypes="cc"
       inkscape:export-filename="/home/dirk/Documents/scratchpad/ball.png"
       inkscape:export-xdpi="150"
       inkscape:export-ydpi="150" />
    <path
       style="fill:none;stroke:#000000;stroke-width:1px;stroke-linecap:butt;stroke-linejoin:miter;stroke-opacity:1"
       d="m 135.71429,370.93361 c -10.26806,4.28465 -22.60927,4.41726 -35.714291,-6.42857"
       id="path3829"
       inkscape:connector-curvature="0"
       sodipodi:nodetypes="cc"
       inkscape:export-filename="/home/dirk/Documents/scratchpad/ball.png"
       inkscape:export-xdpi="150"
       inkscape:export-ydpi="150" />
    <path
       style="fill:none;stroke:#000000;stroke-width:1px;stroke-linecap:butt;stroke-linejoin:miter;stroke-opacity:1"
       d="m 147.14286,375.21933 c -0.13793,9.89764 -0.4087,21.79695 -17.14286,28.92856"
       id="path3831"
       inkscape:connector-curvature="0"
       sodipodi:nodetypes="cc"
       inkscape:export-filename="/home/dirk/Documents/scratchpad/ball.png"
       inkscape:export-xdpi="150"
       inkscape:export-ydpi="150" />
  </g>
</svg>
